<svg xmlns="http://www.w3.org/2000/svg" width="256" height="128" viewBox="0 0 256 128"><path fill="#82947b" d="M3 65l30-20-8 12 30-28-10 23 33-30-12 27 34-32-7 25 33-29-6 27 34-26-12 24 36-24-14 21 31-13-14 13 43-2-26 13 14 11-32-7 17 22-35-19 9 25-29-28 3 33-29-32 5 31-28-29 1 29-27-26 1 23-27-22 3 18z"/><path d="M0 66L249 59" stroke="#6e7967" stroke-width="5"/>
<path fill="#889880" d="M9 65l7 -19 7 -5 -19 24zm1 -4l7 19 5 9 -19 -24z"/>
<path fill="#697e69" d="M16 65l9 -23 7 -5 -21 28zm1 -4l9 23 5 9 -21 -28z"/>
<path fill="#a4ad87" d="M23 65l10 -27 7 -5 -22 32zm1 -4l10 27 5 9 -22 -32z"/>
<path fill="#73866f" d="M30 65l11 -30 7 -5 -23 35zm1 -4l11 30 5 9 -23 -35z"/>
<path fill="#889880" d="M37 65l13 -33 7 -5 -25 38zm1 -4l13 33 5 9 -25 -38z"/>
<path fill="#697e69" d="M44 65l14 -36 7 -5 -26 41zm1 -4l14 36 5 9 -26 -41z"/>
<path fill="#a4ad87" d="M51 65l15 -39 7 -5 -27 44zm1 -4l15 39 5 9 -27 -44z"/>
<path fill="#73866f" d="M58 65l16 -42 7 -5 -28 47zm1 -4l16 42 5 9 -28 -47z"/>
<path fill="#889880" d="M65 65l17 -44 7 -5 -29 49zm1 -4l17 44 5 9 -29 -49z"/>
<path fill="#697e69" d="M72 65l17 -46 7 -5 -29 51zm1 -4l17 46 5 9 -29 -51z"/>
<path fill="#a4ad87" d="M79 65l18 -47 7 -5 -30 52zm1 -4l18 47 5 9 -30 -52z"/>
<path fill="#73866f" d="M86 65l18 -48 7 -5 -30 53zm1 -4l18 48 5 9 -30 -53z"/>
<path fill="#889880" d="M93 65l19 -49 7 -5 -31 54zm1 -4l19 49 5 9 -31 -54z"/>
<path fill="#697e69" d="M100 65l19 -50 7 -5 -31 55zm1 -4l19 50 5 9 -31 -55z"/>
<path fill="#a4ad87" d="M107 65l19 -50 7 -5 -31 55zm1 -4l19 50 5 9 -31 -55z"/>
<path fill="#73866f" d="M114 65l19 -50 7 -5 -31 55zm1 -4l19 50 5 9 -31 -55z"/>
<path fill="#889880" d="M121 65l19 -49 7 -5 -31 54zm1 -4l19 49 5 9 -31 -54z"/>
<path fill="#697e69" d="M128 65l18 -48 7 -5 -30 53zm1 -4l18 48 5 9 -30 -53z"/>
<path fill="#a4ad87" d="M135 65l18 -47 7 -5 -30 52zm1 -4l18 47 5 9 -30 -52z"/>
<path fill="#73866f" d="M142 65l17 -46 7 -5 -29 51zm1 -4l17 46 5 9 -29 -51z"/>
<path fill="#889880" d="M149 65l17 -44 7 -5 -29 49zm1 -4l17 44 5 9 -29 -49z"/>
<path fill="#697e69" d="M156 65l16 -42 7 -5 -28 47zm1 -4l16 42 5 9 -28 -47z"/>
<path fill="#a4ad87" d="M163 65l15 -39 7 -5 -27 44zm1 -4l15 39 5 9 -27 -44z"/>
<path fill="#73866f" d="M170 65l14 -36 7 -5 -26 41zm1 -4l14 36 5 9 -26 -41z"/>
<path fill="#889880" d="M177 65l13 -33 7 -5 -25 38zm1 -4l13 33 5 9 -25 -38z"/>
<path fill="#697e69" d="M184 65l11 -30 7 -5 -23 35zm1 -4l11 30 5 9 -23 -35z"/>
<path fill="#a4ad87" d="M191 65l10 -27 7 -5 -22 32zm1 -4l10 27 5 9 -22 -32z"/>
<path fill="#73866f" d="M198 65l9 -23 7 -5 -21 28zm1 -4l9 23 5 9 -21 -28z"/>
<path fill="#889880" d="M205 65l7 -19 7 -5 -19 24zm1 -4l7 19 5 9 -19 -24z"/>
<path fill="#697e69" d="M212 65l6 -16 7 -5 -18 21zm1 -4l6 16 5 9 -18 -21z"/>
</svg>