{
  "asset": {
    "version": "2.0",
    "generator": "TRELLIS.2 + gltfpack1.3; ground-center fit and semantic material split",
    "extras": {
      "prompt": "{\"108\": {\"class_type\": \"ModelSamplingSD3\", \"inputs\": {\"model\": [\"125\", 0], \"shift\": 5.0}}, \"117\": {\"class_type\": \"VAELoader\", \"inputs\": {\"vae_name\": \"trellis_2_shape_vae_bf16.safetensors\"}}, \"118\": {\"class_type\": \"VAELoader\", \"inputs\": {\"vae_name\": \"trellis_2_texture_vae_bf16.safetensors\"}}, \"119\": {\"class_type\": \"VaeDecodeStructureTrellis2\", \"inputs\": {\"resolution\": \"32\", \"samples\": [\"3\", 0], \"vae\": [\"117\", 0]}}, \"12\": {\"class_type\": \"KSampler\", \"inputs\": {\"cfg\": 1.0, \"denoise\": 1.0, \"latent_image\": [\"98\", 2], \"model\": [\"319\", 0], \"negative\": [\"98\", 1], \"positive\": [\"98\", 0], \"sampler_name\": \"euler\", \"scheduler\": \"normal\", \"seed\": 42, \"steps\": 12}}, \"122\": {\"class_type\": \"LoadImage\", \"inputs\": {\"image\": \"wreck_car-9f14bb5ba700a0f0-9c97464d.png\"}, \"is_changed\": [\"9f14bb5ba700a0f02224bf9068d3458e9eb175571e5bd1ba6500d33bb830a62a\"]}, \"125\": {\"class_type\": \"RescaleCFG\", \"inputs\": {\"model\": [\"199\", 0], \"multiplier\": 0.7}}, \"126\": {\"class_type\": \"RescaleCFG\", \"inputs\": {\"model\": [\"279\", 0], \"multiplier\": 0.5}}, \"147\": {\"class_type\": \"BakeTextureFromVoxel\", \"inputs\": {\"mesh\": [\"196\", 0], \"reference_mesh\": [\"92\", 0], \"texture_size\": [\"288\", 0], \"voxel_colors\": [\"93\", 0]}}, \"15\": {\"class_type\": \"CLIPVisionLoader\", \"inputs\": {\"clip_name\": \"dino_v3_L_naf_fp32.safetensors\"}}, \"18\": {\"class_type\": \"KSampler\", \"inputs\": {\"cfg\": 7.5, \"denoise\": 1.0, \"latent_image\": [\"91\", 2], \"model\": [\"126\", 0], \"negative\": [\"91\", 1], \"positive\": [\"91\", 0], \"sampler_name\": \"euler\", \"scheduler\": \"normal\", \"seed\": 42, \"steps\": 20}}, \"186\": {\"class_type\": \"DecimateMesh\", \"inputs\": {\"mesh\": [\"241\", 0], \"placement_mode\": \"midpoint\", \"target_face_count\": 50000}}, \"196\": {\"class_type\": \"UnwrapMesh\", \"inputs\": {\"mesh\": [\"238\", 0], \"padding\": 1, \"resolution\": [\"288\", 0], \"segmenter\": \"pec\", \"weld_distance\": 0.0002}}, \"199\": {\"class_type\": \"CFGOverride\", \"inputs\": {\"cfg\": 1.0, \"end_percent\": 1.0, \"model\": [\"319\", 0], \"start_percent\": 0.667}}, \"202\": {\"class_type\": \"GetMeshInfo\", \"inputs\": {\"mesh\": [\"92\", 0]}}, \"210\": {\"class_type\": \"ApplyTextureToMesh\", \"inputs\": {\"base_color\": [\"147\", 0], \"mesh\": [\"196\", 0], \"metallic\": [\"147\", 1], \"normal_map\": [\"224\", 0], \"occlusion\": [\"233\", 0], \"roughness\": [\"147\", 2]}}, \"224\": {\"class_type\": \"BakeNormalMapFromMesh\", \"inputs\": {\"cage_distance\": 0.05, \"high_poly\": [\"241\", 0], \"ignore_backfaces\": true, \"low_poly\": [\"196\", 0], \"resolution\": 1024}}, \"23\": {\"class_type\": \"KSampler\", \"inputs\": {\"cfg\": 7.5, \"denoise\": 1.0, \"latent_image\": [\"94\", 2], \"model\": [\"126\", 0], \"negative\": [\"94\", 1], \"positive\": [\"94\", 0], \"sampler_name\": \"euler\", \"scheduler\": \"simple\", \"seed\": 42, \"steps\": 12}}, \"233\": {\"class_type\": \"BakeAmbientOcclusion\", \"inputs\": {\"bias\": 0.01, \"high_poly\": [\"241\", 0], \"low_poly\": [\"196\", 0], \"max_distance\": 0.71, \"resolution\": 512, \"samples\": 64, \"strength\": 1.0}}, \"238\": {\"class_type\": \"MeshSmoothNormals\", \"inputs\": {\"crease_angle\": 180.0, \"mesh\": [\"186\", 0]}}, \"241\": {\"class_type\": \"RemeshMesh\", \"inputs\": {\"band\": 1.0, \"drop_small_components\": 0.01, \"fix_poles\": false, \"mesh\": [\"202\", 0], \"precluster_max_verts\": 1000000, \"project_back\": 0.0, \"resolution\": 192, \"sign_mode\": \"udf\", \"sign_mode.drop_enclosed_components\": false, \"sign_mode.drop_inverted_components\": false, \"sign_mode.qef\": false, \"smooth_iters\": 2}}, \"260\": {\"class_type\": \"MeshSmoothNormals\", \"inputs\": {\"crease_angle\": 180.0, \"mesh\": [\"210\", 0]}}, \"279\": {\"class_type\": \"CFGOverride\", \"inputs\": {\"cfg\": 1.0, \"end_percent\": 1.0, \"model\": [\"319\", 0], \"start_percent\": 0.769}}, \"288\": {\"class_type\": \"PrimitiveInt\", \"inputs\": {\"value\": 1024}}, \"298\": {\"class_type\": \"Trellis2Conditioning\", \"inputs\": {\"clip_vision_model\": [\"15\", 0], \"image\": [\"312\", 0]}}, \"3\": {\"class_type\": \"KSampler\", \"inputs\": {\"cfg\": 7.5, \"denoise\": 1.0, \"latent_image\": [\"87\", 0], \"model\": [\"108\", 0], \"negative\": [\"298\", 1], \"positive\": [\"298\", 0], \"sampler_name\": \"euler\", \"scheduler\": \"normal\", \"seed\": 42, \"steps\": 12}}, \"312\": {\"class_type\": \"ImageCropToMask\", \"inputs\": {\"background\": \"#000000\", \"grow_mask\": 0, \"height\": 1024, \"images\": [\"122\", 0], \"masks\": [\"v2_alpha\", 0], \"pad_factor\": 1.0, \"width\": 1024}}, \"319\": {\"class_type\": \"UNETLoader\", \"inputs\": {\"unet_name\": \"trellis_2_int8_convrot.safetensors\", \"weight_dtype\": \"default\"}}, \"87\": {\"class_type\": \"EmptyTrellis2LatentStructure\", \"inputs\": {\"batch_size\": 1}}, \"91\": {\"class_type\": \"Trellis2ShapeStage\", \"inputs\": {\"negative\": [\"298\", 1], \"positive\": [\"298\", 0], \"voxel\": [\"119\", 0]}}, \"92\": {\"class_type\": \"VaeDecodeShapeTrellis\", \"inputs\": {\"samples\": [\"23\", 0], \"vae\": [\"117\", 0]}}, \"93\": {\"class_type\": \"VaeDecodeTextureTrellis\", \"inputs\": {\"samples\": [\"12\", 0], \"shape_subdivides\": [\"92\", 1], \"vae\": [\"118\", 0]}}, \"94\": {\"class_type\": \"Trellis2UpsampleStage\", \"inputs\": {\"negative\": [\"91\", 1], \"positive\": [\"91\", 0], \"shape_latent\": [\"18\", 0], \"target_resolution\": 1024, \"vae\": [\"117\", 0]}}, \"98\": {\"class_type\": \"Trellis2TextureStage\", \"inputs\": {\"negative\": [\"94\", 1], \"positive\": [\"94\", 0], \"shape_latent\": [\"23\", 0]}}, \"conditioning_image\": {\"class_type\": \"SaveImage\", \"inputs\": {\"filename_prefix\": \"skill-3d/wreck_car/9c97464d3e7c4836870015be4fef4ce9/conditioning\", \"images\": [\"312\", 0]}}, \"save\": {\"class_type\": \"SaveGLB\", \"inputs\": {\"filename_prefix\": \"skill-3d/wreck_car/9c97464d3e7c4836870015be4fef4ce9/model\", \"mesh\": [\"260\", 0]}}, \"v2_alpha\": {\"class_type\": \"InvertMask\", \"inputs\": {\"mask\": [\"122\", 1]}}}"
    }
  },
  "buffers": [
    {
      "byteLength": 4062120,
      "uri": "wreck_car.bin"
    }
  ],
  "bufferViews": [
    {
      "buffer": 0,
      "byteOffset": 0,
      "byteLength": 1294637
    },
    {
      "buffer": 0,
      "byteOffset": 1294640,
      "byteLength": 1190232
    },
    {
      "buffer": 0,
      "byteOffset": 2484872,
      "byteLength": 1119589
    },
    {
      "buffer": 0,
      "byteOffset": 3604464,
      "byteLength": 28812,
      "target": 34962
    },
    {
      "buffer": 0,
      "byteOffset": 3633276,
      "byteLength": 19208,
      "target": 34962
    },
    {
      "buffer": 0,
      "byteOffset": 3652484,
      "byteLength": 28812,
      "target": 34962
    },
    {
      "buffer": 0,
      "byteOffset": 3681296,
      "byteLength": 38416,
      "target": 34962
    },
    {
      "buffer": 0,
      "byteOffset": 3719712,
      "byteLength": 18072,
      "target": 34963
    },
    {
      "buffer": 0,
      "byteOffset": 3737784,
      "byteLength": 54792,
      "target": 34962
    },
    {
      "buffer": 0,
      "byteOffset": 3792576,
      "byteLength": 36528,
      "target": 34962
    },
    {
      "buffer": 0,
      "byteOffset": 3829104,
      "byteLength": 54792,
      "target": 34962
    },
    {
      "buffer": 0,
      "byteOffset": 3883896,
      "byteLength": 73056,
      "target": 34962
    },
    {
      "buffer": 0,
      "byteOffset": 3956952,
      "byteLength": 37248,
      "target": 34963
    },
    {
      "buffer": 0,
      "byteOffset": 3994200,
      "byteLength": 4080,
      "target": 34962
    },
    {
      "buffer": 0,
      "byteOffset": 3998280,
      "byteLength": 2720,
      "target": 34962
    },
    {
      "buffer": 0,
      "byteOffset": 4001000,
      "byteLength": 4080,
      "target": 34962
    },
    {
      "buffer": 0,
      "byteOffset": 4005080,
      "byteLength": 5440,
      "target": 34962
    },
    {
      "buffer": 0,
      "byteOffset": 4010520,
      "byteLength": 2520,
      "target": 34963
    },
    {
      "buffer": 0,
      "byteOffset": 4013040,
      "byteLength": 10632,
      "target": 34962
    },
    {
      "buffer": 0,
      "byteOffset": 4023672,
      "byteLength": 7088,
      "target": 34962
    },
    {
      "buffer": 0,
      "byteOffset": 4030760,
      "byteLength": 10632,
      "target": 34962
    },
    {
      "buffer": 0,
      "byteOffset": 4041392,
      "byteLength": 14176,
      "target": 34962
    },
    {
      "buffer": 0,
      "byteOffset": 4055568,
      "byteLength": 6552,
      "target": 34963
    }
  ],
  "accessors": [
    {
      "bufferView": 3,
      "componentType": 5126,
      "count": 2401,
      "type": "VEC3",
      "min": [
        -1.2200000286102295,
        0.2859831750392914,
        -2.297795057296753
      ],
      "max": [
        1.2200000286102295,
        2.0,
        2.328610897064209
      ]
    },
    {
      "bufferView": 4,
      "componentType": 5126,
      "count": 2401,
      "type": "VEC2"
    },
    {
      "bufferView": 5,
      "componentType": 5126,
      "count": 2401,
      "type": "VEC3"
    },
    {
      "bufferView": 6,
      "componentType": 5126,
      "count": 2401,
      "type": "VEC4"
    },
    {
      "bufferView": 7,
      "componentType": 5125,
      "count": 4518,
      "type": "SCALAR",
      "min": [
        0
      ],
      "max": [
        2400
      ]
    },
    {
      "bufferView": 8,
      "componentType": 5126,
      "count": 4566,
      "type": "VEC3",
      "min": [
        -1.2066227197647095,
        0.0010651679476723075,
        -2.3399999141693115
      ],
      "max": [
        1.0499628782272339,
        1.7297515869140625,
        2.390000104904175
      ]
    },
    {
      "bufferView": 9,
      "componentType": 5126,
      "count": 4566,
      "type": "VEC2"
    },
    {
      "bufferView": 10,
      "componentType": 5126,
      "count": 4566,
      "type": "VEC3"
    },
    {
      "bufferView": 11,
      "componentType": 5126,
      "count": 4566,
      "type": "VEC4"
    },
    {
      "bufferView": 12,
      "componentType": 5125,
      "count": 9312,
      "type": "SCALAR",
      "min": [
        0
      ],
      "max": [
        4565
      ]
    },
    {
      "bufferView": 13,
      "componentType": 5126,
      "count": 340,
      "type": "VEC3",
      "min": [
        -1.2147586345672607,
        0.800072193145752,
        -2.297795057296753
      ],
      "max": [
        1.2076919078826904,
        1.9772623777389526,
        2.2307722568511963
      ]
    },
    {
      "bufferView": 14,
      "componentType": 5126,
      "count": 340,
      "type": "VEC2"
    },
    {
      "bufferView": 15,
      "componentType": 5126,
      "count": 340,
      "type": "VEC3"
    },
    {
      "bufferView": 16,
      "componentType": 5126,
      "count": 340,
      "type": "VEC4"
    },
    {
      "bufferView": 17,
      "componentType": 5125,
      "count": 630,
      "type": "SCALAR",
      "min": [
        0
      ],
      "max": [
        339
      ]
    },
    {
      "bufferView": 18,
      "componentType": 5126,
      "count": 886,
      "type": "VEC3",
      "min": [
        -1.071347951889038,
        0.0,
        -2.202648162841797
      ],
      "max": [
        1.0399245023727417,
        1.0460641384124756,
        2.031599283218384
      ]
    },
    {
      "bufferView": 19,
      "componentType": 5126,
      "count": 886,
      "type": "VEC2"
    },
    {
      "bufferView": 20,
      "componentType": 5126,
      "count": 886,
      "type": "VEC3"
    },
    {
      "bufferView": 21,
      "componentType": 5126,
      "count": 886,
      "type": "VEC4"
    },
    {
      "bufferView": 22,
      "componentType": 5125,
      "count": 1638,
      "type": "SCALAR",
      "min": [
        0
      ],
      "max": [
        885
      ]
    }
  ],
  "samplers": [
    {
      "magFilter": 9729,
      "minFilter": 9729,
      "wrapS": 33071,
      "wrapT": 33071
    }
  ],
  "images": [
    {
      "mimeType": "image/png",
      "uri": "wreck_car_texture_0.png"
    },
    {
      "mimeType": "image/png",
      "uri": "wreck_car_texture_1.png"
    },
    {
      "mimeType": "image/png",
      "uri": "wreck_car_texture_2.png"
    }
  ],
  "textures": [
    {
      "sampler": 0,
      "source": 0
    },
    {
      "sampler": 0,
      "source": 1
    },
    {
      "sampler": 0,
      "source": 2
    }
  ],
  "materials": [
    {
      "name": "RoadsidePaint",
      "pbrMetallicRoughness": {
        "baseColorTexture": {
          "index": 0
        },
        "metallicRoughnessTexture": {
          "index": 1
        },
        "roughnessFactor": 0.9
      },
      "normalTexture": {
        "index": 2
      },
      "occlusionTexture": {
        "index": 1
      },
      "doubleSided": true
    },
    {
      "name": "Metal",
      "pbrMetallicRoughness": {
        "baseColorTexture": {
          "index": 0
        },
        "metallicRoughnessTexture": {
          "index": 1
        },
        "roughnessFactor": 0.86
      },
      "normalTexture": {
        "index": 2
      },
      "occlusionTexture": {
        "index": 1
      },
      "doubleSided": true
    },
    {
      "name": "Glass",
      "pbrMetallicRoughness": {
        "baseColorTexture": {
          "index": 0
        },
        "roughnessFactor": 0.92,
        "metallicFactor": 0
      },
      "normalTexture": {
        "index": 2
      },
      "occlusionTexture": {
        "index": 1
      },
      "doubleSided": true
    },
    {
      "name": "Rubber",
      "pbrMetallicRoughness": {
        "baseColorTexture": {
          "index": 0
        },
        "roughnessFactor": 0.95,
        "metallicFactor": 0
      },
      "normalTexture": {
        "index": 2
      },
      "occlusionTexture": {
        "index": 1
      },
      "doubleSided": true
    }
  ],
  "meshes": [
    {
      "name": "BodyPaint",
      "primitives": [
        {
          "attributes": {
            "POSITION": 0,
            "TEXCOORD_0": 1,
            "NORMAL": 2,
            "TANGENT": 3
          },
          "indices": 4,
          "material": 0
        }
      ]
    },
    {
      "name": "Metal",
      "primitives": [
        {
          "attributes": {
            "POSITION": 5,
            "TEXCOORD_0": 6,
            "NORMAL": 7,
            "TANGENT": 8
          },
          "indices": 9,
          "material": 1
        }
      ]
    },
    {
      "name": "Glass",
      "primitives": [
        {
          "attributes": {
            "POSITION": 10,
            "TEXCOORD_0": 11,
            "NORMAL": 12,
            "TANGENT": 13
          },
          "indices": 14,
          "material": 2
        }
      ]
    },
    {
      "name": "Rubber",
      "primitives": [
        {
          "attributes": {
            "POSITION": 15,
            "TEXCOORD_0": 16,
            "NORMAL": 17,
            "TANGENT": 18
          },
          "indices": 19,
          "material": 3
        }
      ]
    }
  ],
  "nodes": [
    {
      "name": "WreckCar",
      "children": [
        1,
        2,
        3,
        4
      ]
    },
    {
      "name": "BodyPaint",
      "mesh": 0
    },
    {
      "name": "Metal",
      "mesh": 1
    },
    {
      "name": "Glass",
      "mesh": 2
    },
    {
      "name": "Rubber",
      "mesh": 3
    }
  ],
  "scenes": [
    {
      "nodes": [
        0
      ]
    }
  ],
  "scene": 0
}
