# Irregular wall scar, 1.13 m tall by 1.25 m wide in local Y/Z.
# All faces are visual only; placement and socket/collision geometry remain in room scenes.
o ChippedWall
v 0.006 0.000 0.000
v 0.000 -0.560 -0.390
v -0.003 -0.430 -0.625
v 0.002 -0.160 -0.570
v -0.002 -0.050 -0.620
v 0.003 0.205 -0.500
v -0.002 0.450 -0.570
v 0.002 0.565 -0.290
v -0.002 0.455 -0.035
v 0.003 0.555 0.180
v -0.003 0.315 0.350
v 0.002 0.420 0.580
v -0.002 0.085 0.525
v 0.003 -0.085 0.625
v -0.002 -0.325 0.475
v 0.002 -0.535 0.550
v -0.003 -0.450 0.170
v 0.001 -0.565 -0.110
f 1 2 3
f 1 3 4
f 1 4 5
f 1 5 6
f 1 6 7
f 1 7 8
f 1 8 9
f 1 9 10
f 1 10 11
f 1 11 12
f 1 12 13
f 1 13 14
f 1 14 15
f 1 15 16
f 1 16 17
f 1 17 18
f 1 18 2
